<?xml version="1.0" encoding="UTF-8"?>
<svg width="10px" height="10px" viewBox="0 0 10 10" version="1.1" xmlns="http://www.w3.org/2000/svg" xmlns:xlink="http://www.w3.org/1999/xlink">
    <title>形状</title>
    <g id="页面-1" stroke="none" stroke-width="1" fill="none" fill-rule="evenodd">
        <g id="瑞蓝通用管理系统--04.图标及配图" transform="translate(-433, -546)" fill="#E6A23C" fill-rule="nonzero">
            <path d="M438,556.000012 C435.238499,556.000012 433,553.761513 433,551 C433,548.238499 435.238499,546 438,546 C440.761513,546 443.000012,548.238499 443.000012,551 C443.000012,553.761513 440.761513,556.000012 438,556.000012 Z M438.000001,555.000001 C440.209256,555.000001 442.000001,553.209256 442.000001,551.000001 C442.000001,548.790755 440.209256,547.000001 438.000001,547.000001 C435.790755,547.000001 434.000001,548.790755 434.000001,551.000001 C434.000001,553.209256 435.790755,555.000001 438.000001,555.000001 Z M438.250009,551.293004 L438.987507,552.030505 L438.987507,552.030505 C439.377889,552.421005 439.377889,553.054002 438.987507,553.444511 L437.396509,551.853513 L437.396509,551.853513 C437.302594,551.75986 437.249872,551.632642 437.250009,551.500009 L437.250009,548.500009 L437.250009,548.500009 C437.802295,548.500009 438.250009,548.947724 438.250009,549.500009 L438.250009,551.29301 L438.250009,551.293004 Z" id="形状"></path>
        </g>
    </g>
</svg>