<?xml version="1.0" encoding="UTF-8"?>
<svg width="12px" height="12px" viewBox="0 0 12 12" version="1.1" xmlns="http://www.w3.org/2000/svg" xmlns:xlink="http://www.w3.org/1999/xlink">
    <title>形状结合</title>
    <g id="页面-1" stroke="none" stroke-width="1" fill="none" fill-rule="evenodd">
        <g id="瑞蓝通用管理系统--04.图标及配图" transform="translate(-599, -544)" fill="#FFFFFF" fill-rule="nonzero">
            <path d="M605,544 C608.3276,544 611,546.6724 611,550 C611,553.3276 608.3276,556 605,556 C601.6724,556 599,553.3276 599,550 C599,546.6724 601.6724,544 605,544 Z M603.8624,546.9976 L602.36,548.5816 L603.8624,550 L603.8624,549.0988 L605.4776,549.0988 L605.6036,549.106 C606.1832,549.1744 606.6332,549.7096 606.6332,550.36 C606.6332,551.0572 606.116,551.6212 605.4776,551.6212 L603.3968,551.6212 L603.3032,551.6308 C603.0596,551.6788 602.876,551.9116 602.876,552.1912 C602.876,552.5056 603.1088,552.76 603.3968,552.76 L605.4776,552.76 L605.636,552.754 C606.776,552.6664 607.676,551.6284 607.676,550.36 C607.676,549.034 606.692,547.96 605.4776,547.96 L603.8624,547.96 L603.8624,546.9976 Z" id="形状结合"></path>
        </g>
    </g>
</svg>