<?xml version="1.0" encoding="UTF-8"?>
<svg width="10px" height="10px" viewBox="0 0 10 10" version="1.1" xmlns="http://www.w3.org/2000/svg" xmlns:xlink="http://www.w3.org/1999/xlink">
    <title>形状</title>
    <g id="页面-1" stroke="none" stroke-width="1" fill="none" fill-rule="evenodd">
        <g id="瑞蓝通用管理系统--04.图标及配图" transform="translate(-375, -546)" fill="#909399" fill-rule="nonzero">
            <path d="M384.204991,549.102934 C383.963292,548.532523 383.618467,548.02012 383.178037,547.57969 C382.738681,547.140334 382.226278,546.794435 381.654793,546.552736 C381.065046,546.303517 380.437702,546.176759 379.791021,546.176759 C379.144341,546.176759 378.516996,546.303517 377.926175,546.55381 C377.355764,546.795509 376.843362,547.140334 376.402931,547.580764 C375.963575,548.02012 375.617677,548.532523 375.375977,549.104008 C375.126758,549.693755 375,550.321099 375,550.96778 C375,551.61446 375.126758,552.241805 375.377051,552.832626 C375.618751,553.403037 375.963575,553.915439 376.404006,554.35587 C376.843362,554.795226 377.355764,555.141125 377.92725,555.382824 C378.518071,555.633117 379.145415,555.759875 379.792095,555.759875 C380.438776,555.759875 381.06612,555.633117 381.656941,555.382824 C382.227352,555.141125 382.739755,554.7963 383.180185,554.35587 C383.619541,553.916514 383.96544,553.404111 384.20714,552.832626 C384.457433,552.241805 384.584191,551.61446 384.584191,550.96778 C384.582042,550.321099 384.455284,549.693755 384.204991,549.102934 Z M382.536728,553.713486 C381.803035,554.447178 380.828718,554.851085 379.791021,554.851085 C378.753325,554.851085 377.779007,554.447178 377.045315,553.713486 C376.311623,552.979794 375.907716,552.005476 375.907716,550.96778 C375.907716,549.930083 376.311623,548.955766 377.045315,548.222073 C377.779007,547.488381 378.753325,547.084475 379.791021,547.084475 C380.828718,547.084475 381.803035,547.488381 382.536728,548.222073 C383.27042,548.955766 383.674327,549.930083 383.674327,550.96778 C383.674327,552.005476 383.27042,552.979794 382.536728,553.713486 Z M380.667585,549.614263 L378.82852,549.614263 C378.578227,549.614263 378.373051,549.819439 378.373051,550.069732 L378.373051,551.908797 C378.373051,552.15909 378.578227,552.364266 378.82852,552.364266 L380.667585,552.364266 C380.917878,552.364266 381.123054,552.15909 381.123054,551.908797 L381.123054,550.069732 C381.123054,549.819439 380.917878,549.614263 380.667585,549.614263 L380.667585,549.614263 Z" id="形状"></path>
        </g>
    </g>
</svg>