<?xml version="1.0" encoding="UTF-8"?>
<svg width="10px" height="10px" viewBox="0 0 10 10" version="1.1" xmlns="http://www.w3.org/2000/svg" xmlns:xlink="http://www.w3.org/1999/xlink">
    <title>形状结合</title>
    <g id="页面-1" stroke="none" stroke-width="1" fill="none" fill-rule="evenodd">
        <g id="瑞蓝通用管理系统--04.图标及配图" transform="translate(-491, -546)" fill="#67C23A" fill-rule="nonzero">
            <path d="M496,546 C498.772734,546 501.000012,548.227278 501.000012,551 C501.000012,553.772734 498.772734,556.000012 496,556.000012 C493.227278,556.000012 491,553.772734 491,551 C491,548.227278 493.227278,546 496,546 Z M496.000006,546.909092 C493.727279,546.909092 491.909093,548.727278 491.909093,551.000005 C491.909093,553.272732 493.727279,555.090918 496.000006,555.090918 C498.272733,555.090918 500.090919,553.272732 500.090919,551.000005 C500.090919,548.727278 498.272733,546.909092 496.000006,546.909092 Z M498.192278,549.114781 C498.309853,549.114781 498.422613,549.161489 498.505749,549.24463 C498.588889,549.327766 498.635597,549.440525 498.635597,549.558101 C498.635597,549.675676 498.588889,549.788435 498.505749,549.871571 L495.621839,552.75537 C495.538703,552.838511 495.425944,552.885219 495.308368,552.885219 C495.190793,552.885219 495.078034,552.838511 494.994897,552.75537 L493.616224,551.376143 C493.533084,551.293007 493.486376,551.180247 493.486376,551.062672 C493.486376,550.945097 493.533084,550.832337 493.616224,550.749201 C493.69936,550.666061 493.81212,550.619353 493.929695,550.619353 C494.04727,550.619353 494.16003,550.666061 494.243166,550.749201 L495.308424,551.815013 L497.878807,549.24463 C497.961943,549.161489 498.074703,549.114781 498.192278,549.114781 Z" id="形状结合"></path>
        </g>
    </g>
</svg>