<?xml version="1.0" encoding="UTF-8"?>
<svg width="12px" height="12px" viewBox="0 0 12 12" version="1.1" xmlns="http://www.w3.org/2000/svg" xmlns:xlink="http://www.w3.org/1999/xlink">
    <title>形状结合</title>
    <g id="页面-1" stroke="none" stroke-width="1" fill="none" fill-rule="evenodd">
        <g id="瑞蓝通用管理系统--04.图标及配图" transform="translate(-670, -544)" fill="#FFFFFF" fill-rule="nonzero">
            <path d="M676.000014,543.999842 C679.313687,543.999842 682,546.686375 682,549.999856 C682,553.313433 679.313673,556.000158 676,556.000158 C672.686327,556.000158 670,553.313433 670,549.999856 C670,546.686375 672.68634,543.999842 676.000014,543.999842 Z M678.87345,549.482261 L673.12655,549.482261 C672.815906,549.482261 672.608811,549.689357 672.608811,550 C672.608811,550.310643 672.815906,550.517739 673.12655,550.517739 L678.925225,550.517739 C679.184094,550.517739 679.391189,550.310643 679.391189,550 C679.391189,549.689357 679.184094,549.482261 678.87345,549.482261 Z" id="形状结合"></path>
        </g>
    </g>
</svg>