<?xml version="1.0" encoding="UTF-8"?>
<svg width="12px" height="12px" viewBox="0 0 12 12" version="1.1" xmlns="http://www.w3.org/2000/svg" xmlns:xlink="http://www.w3.org/1999/xlink">
    <title>形状结合</title>
    <g id="页面-1" stroke="none" stroke-width="1" fill="none" fill-rule="evenodd">
        <g id="瑞蓝通用管理系统--04.图标及配图" transform="translate(-563, -544)" fill="#FFFFFF" fill-rule="nonzero">
            <path d="M569.000014,543.999842 C572.313687,543.999842 575,546.686375 575,549.999856 C575,553.313433 572.313673,556.000158 569,556.000158 C565.686327,556.000158 563,553.313433 563,549.999856 C563,546.686375 565.68634,543.999842 569.000014,543.999842 Z M570.429137,547.862973 L567.570863,547.862973 C567.181857,547.862973 566.862973,548.181857 566.862973,548.570863 L566.862973,551.429137 C566.862973,551.818143 567.181857,552.137027 567.570863,552.137027 L570.429137,552.137027 C570.818143,552.137027 571.137027,551.818143 571.137027,551.429137 L571.137027,548.570863 C571.137027,548.181857 570.818143,547.862973 570.429137,547.862973 Z" id="形状结合"></path>
        </g>
    </g>
</svg>