<?xml version="1.0" encoding="UTF-8"?>
<svg width="10px" height="10px" viewBox="0 0 10 10" version="1.1" xmlns="http://www.w3.org/2000/svg" xmlns:xlink="http://www.w3.org/1999/xlink">
    <title>形状结合</title>
    <g id="页面-1" stroke="none" stroke-width="1" fill="none" fill-rule="evenodd">
        <g id="瑞蓝通用管理系统--04.图标及配图" transform="translate(-346, -546)" fill="#F56C6C" fill-rule="nonzero">
            <path d="M351.000006,546.111111 L351.217777,546.115875 C353.816789,546.2298 355.888904,548.372927 355.888904,551.000009 C355.888904,553.700076 353.700063,555.888907 351.000006,555.888907 L350.782235,555.884144 C348.183222,555.770218 346.111108,553.627092 346.111108,551.000009 C346.111108,548.299942 348.299949,546.111111 351.000006,546.111111 Z M351.000006,546.940133 L350.797378,546.945101 C348.649309,547.050685 346.94013,548.825751 346.94013,551.000009 C346.94013,553.242213 348.757802,555.059886 351.000006,555.059886 L351.202634,555.054917 C353.350703,554.949334 355.059882,553.174268 355.059882,551.000009 C355.059882,548.757805 353.24221,546.940133 351.000006,546.940133 Z M351.000006,552.39683 C351.289299,552.39683 351.523816,552.631347 351.523816,552.92064 L351.515377,553.014796 C351.471025,553.259152 351.257155,553.44445 351.000006,553.44445 C350.710714,553.44445 350.476196,553.209932 350.476196,552.92064 L350.484635,552.826484 C350.528987,552.582128 350.742857,552.39683 351.000006,552.39683 Z M351.261911,548.555555 L351.295893,548.562416 C351.327227,548.575669 351.349213,548.606696 351.349213,548.642857 L351.349213,551.611111 L351.342352,551.645093 C351.329099,551.676427 351.298073,551.698413 351.261911,551.698413 L350.738101,551.698413 C350.68991,551.698413 350.650799,551.659302 350.650799,551.611111 L350.650799,548.642857 L350.65766,548.608875 C350.670913,548.577541 350.701939,548.555555 350.738101,548.555555 L351.261911,548.555555 Z" id="形状结合"></path>
        </g>
    </g>
</svg>