<?xml version="1.0" encoding="UTF-8"?>
<svg width="12px" height="12px" viewBox="0 0 12 12" version="1.1" xmlns="http://www.w3.org/2000/svg" xmlns:xlink="http://www.w3.org/1999/xlink">
    <title>形状结合</title>
    <g id="页面-1" stroke="none" stroke-width="1" fill="none" fill-rule="evenodd">
        <g id="瑞蓝通用管理系统--04.图标及配图" transform="translate(-706, -544)" fill="#FFFFFF" fill-rule="nonzero">
            <path d="M712.000014,543.999842 C715.313687,543.999842 718,546.686375 718,549.999856 C718,553.313433 715.313673,556.000158 712,556.000158 C708.686327,556.000158 706,553.313433 706,549.999856 C706,546.686375 708.68634,543.999842 712.000014,543.999842 Z M714.859192,547.47125 C714.701482,547.47125 714.550232,547.533902 714.438716,547.645423 L710.990917,551.093223 L709.561284,549.663589 C709.449768,549.552069 709.298518,549.489416 709.140808,549.489416 C708.983097,549.489416 708.831847,549.552069 708.720332,549.663589 C708.608811,549.775105 708.546158,549.926355 708.546158,550.084065 C708.546158,550.241776 708.608811,550.393026 708.720332,550.504542 L710.570367,552.354577 C710.681882,552.466098 710.833132,552.52875 710.990843,552.52875 C711.148553,552.52875 711.299803,552.466098 711.411319,552.354577 L715.279668,548.486375 C715.391189,548.37486 715.453842,548.22361 715.453842,548.065899 C715.453842,547.908189 715.391189,547.756939 715.279668,547.645423 C715.168153,547.533902 715.016903,547.47125 714.859192,547.47125 Z" id="形状结合"></path>
        </g>
    </g>
</svg>