<?xml version="1.0" encoding="UTF-8"?>
<svg width="10px" height="10px" viewBox="0 0 10 10" version="1.1" xmlns="http://www.w3.org/2000/svg" xmlns:xlink="http://www.w3.org/1999/xlink">
    <title>形状结合</title>
    <g id="页面-1" stroke="none" stroke-width="1" fill="none" fill-rule="evenodd">
        <g id="瑞蓝通用管理系统--04.图标及配图" transform="translate(-404, -546)" fill="#F56C6C" fill-rule="nonzero">
            <path d="M409,546 C411.773,546 414,548.227 414,551 C414,553.773 411.773,556 409,556 C406.227,556 404,553.773 404,551 C404,548.227 406.227,546 409,546 Z M409,546.909968 C407.91396,546.905726 406.871168,547.335263 406.103215,548.103215 C405.335263,548.871168 404.905726,549.91396 404.909968,551 C404.905726,552.08604 405.335263,553.128832 406.103215,553.896785 C406.871168,554.664737 407.91396,555.094274 409,555.090032 C410.08604,555.094274 411.128832,554.664737 411.896785,553.896785 C412.664737,553.128832 413.094274,552.08604 413.090032,551 C413.094274,549.91396 412.664737,548.871168 411.896785,548.103215 C411.128832,547.335263 410.08604,546.905726 409,546.909968 Z M408.052,548.498 L408.052,549.3 L409.398,549.3 C410.41,549.3 411.23,550.195 411.23,551.3 C411.23,552.357 410.48,553.222 409.53,553.295 L409.398,553.3 L407.664,553.3 C407.424,553.3 407.23,553.088 407.23,552.826 C407.23,552.593 407.383,552.399 407.586,552.359 L407.664,552.351 L409.398,552.351 C409.93,552.351 410.361,551.881 410.361,551.3 C410.361,550.758 409.986,550.312 409.503,550.255 L409.398,550.249 L408.052,550.249 L408.052,551 L406.8,549.818 L408.052,548.498 Z" id="形状结合"></path>
        </g>
    </g>
</svg>