<?xml version="1.0" encoding="UTF-8"?>
<svg width="13px" height="12px" viewBox="0 0 13 12" version="1.1" xmlns="http://www.w3.org/2000/svg" xmlns:xlink="http://www.w3.org/1999/xlink">
    <title>编组</title>
    <g id="页面-1" stroke="none" stroke-width="1" fill="none" fill-rule="evenodd">
        <g id="瑞蓝通用管理系统--04.图标及配图" transform="translate(-527, -544)" fill="#FFFFFF">
            <g id="编组" transform="translate(527.8674, 543.9998)">
                <path d="M6.00001374,0 C2.68634027,0 0,2.68653271 0,6.00001375 C0,9.31359101 2.68632653,12.0003161 6,12.0003161 C9.31367347,12.0003161 12,9.31359101 12,6.00001375 C12,2.68653271 9.31368723,0 6.00001374,0 L6.00001374,0 Z M6.00001374,9.64308492 C5.55470489,9.64308492 5.19394122,9.28196388 5.19394122,8.83664129 C5.19394122,8.39151113 5.55469114,8.03039009 6.00001374,8.03039009 C6.44533634,8.03039009 6.80607252,8.39151113 6.80607252,8.83664129 C6.80607252,9.28196388 6.4453226,9.64308492 6.00001374,9.64308492 L6.00001374,9.64308492 Z M6.99923028,3.72628309 L6.80605878,6.61926491 C6.80605878,7.06457376 6.4453226,7.42570854 6,7.42570854 C5.5546774,7.42570854 5.19392748,7.0645875 5.19392748,6.61926491 L5.00076972,3.72628309 C4.99529923,3.6834126 4.99216538,3.63996481 4.99216538,3.59551365 C4.99216538,3.03888446 5.44334332,2.58770652 5.99998625,2.58770652 C6.55661543,2.58770652 7.00779356,3.03888446 7.00779356,3.59551365 C7.00782087,3.63995107 7.00470077,3.68339886 6.99923028,3.72628309 L6.99923028,3.72628309 Z" id="形状" fill-rule="nonzero"></path>
            </g>
        </g>
    </g>
</svg>