<?xml version="1.0" encoding="UTF-8"?>
<svg width="10px" height="10px" viewBox="0 0 10 10" version="1.1" xmlns="http://www.w3.org/2000/svg" xmlns:xlink="http://www.w3.org/1999/xlink">
    <title>形状</title>
    <g id="页面-1" stroke="none" stroke-width="1" fill="none" fill-rule="evenodd">
        <g id="瑞蓝通用管理系统--04.图标及配图" transform="translate(-462, -546)" fill="#909399" fill-rule="nonzero">
            <path d="M467.000006,546.909092 C469.272733,546.909092 471.090919,548.727278 471.090919,551.000005 C471.090919,553.272732 469.272733,555.090918 467.000006,555.090918 C464.727279,555.090918 462.909093,553.272732 462.909093,551.000005 C462.909093,548.727278 464.727279,546.909092 467.000006,546.909092 M467,546 C464.227278,546 462,548.227278 462,551 C462,553.772734 464.227278,556.000012 467,556.000012 C469.772734,556.000012 472.000012,553.772734 472.000012,551 C472.000012,548.227278 469.772734,546 467,546 Z M469.545468,551.454547 L464.454554,551.454547 C464.181826,551.454547 464.000007,551.272729 464.000007,551.000001 C464.000007,550.727273 464.181826,550.545455 464.454554,550.545455 L469.500018,550.545455 C469.772746,550.545455 469.954565,550.727273 469.954565,551.000001 C469.954565,551.272729 469.772746,551.454547 469.545474,551.454547 L469.545468,551.454547 Z" id="形状"></path>
        </g>
    </g>
</svg>