<?xml version="1.0" encoding="UTF-8"?>
<svg width="16px" height="8px" viewBox="0 0 16 8" version="1.1" xmlns="http://www.w3.org/2000/svg" xmlns:xlink="http://www.w3.org/1999/xlink">
    <title>ic_zhankai</title>
    <g id="页面-1" stroke="none" stroke-width="1" fill="none" fill-rule="evenodd">
        <g id="瑞蓝通用管理系统--04.图标及配图" transform="translate(-1029, -547)" fill="#999999">
            <g id="编组" transform="translate(1029, 547)">
                <path d="M0.233394946,7.78650116 C0.52903787,8.05556908 0.984752474,8.07129964 1.29944267,7.82329947 L1.34241513,7.78650116 L8.00149464,1.60758492 L14.6589214,7.78650116 C14.9548106,8.05649602 15.4116462,8.07224086 15.7266219,7.82329947 L15.7695943,7.78650116 C16.0606246,7.52190048 16.0782902,7.08013374 15.8092612,6.79454672 L15.7695943,6.75614848 L8.83284659,0.319644064 C8.38454725,-0.0888103371 7.69147864,-0.108057538 7.21972631,0.274846117 L7.17014269,0.319644064 L0.230089372,6.75614848 C0.0832637438,6.88979769 0,7.07622747 0,7.27132482 C0,7.46642217 0.0832637438,7.65285195 0.230089372,7.78650116 L0.233394946,7.78650116 Z" id="路径备份-3" fill-rule="nonzero" transform="translate(8, 4) scale(1, -1) translate(-8, -4)"></path>
            </g>
        </g>
    </g>
</svg>