<?xml version="1.0" encoding="UTF-8"?>
<svg width="44px" height="44px" viewBox="0 0 44 44" version="1.1" xmlns="http://www.w3.org/2000/svg" xmlns:xlink="http://www.w3.org/1999/xlink">
    <title>ic_gaojing_renwu</title>
    <defs>
        <linearGradient x1="50%" y1="0%" x2="50%" y2="100%" id="linearGradient-1">
            <stop stop-color="#DFE6F0" offset="0%"></stop>
            <stop stop-color="#DEE5F0" offset="100%"></stop>
        </linearGradient>
        <circle id="path-2" cx="22" cy="22" r="22"></circle>
        <linearGradient x1="-6.45049078%" y1="13.5919059%" x2="71.2648444%" y2="80.9852099%" id="linearGradient-4">
            <stop stop-color="#FFF9F9" offset="0%"></stop>
            <stop stop-color="#FF4237" offset="100%"></stop>
        </linearGradient>
        <linearGradient x1="-6.45049078%" y1="12.703391%" x2="71.2648444%" y2="81.741383%" id="linearGradient-5">
            <stop stop-color="#FFF9F9" offset="0%"></stop>
            <stop stop-color="#FF4237" offset="100%"></stop>
        </linearGradient>
    </defs>
    <g id="页面-1" stroke="none" stroke-width="1" fill="none" fill-rule="evenodd">
        <g id="消息提示" transform="translate(-1490, -394)">
            <g id="编组" transform="translate(1490, 394)">
                <mask id="mask-3" fill="white">
                    <use xlink:href="#path-2"></use>
                </mask>
                <use id="蒙版" fill="#FFEFEF" xlink:href="#path-2"></use>
                <path d="M23.3599378,10.4182689 C23.7272426,10.6281574 24.03165,10.9325648 24.2415385,11.2998696 L33.3589282,27.2553016 C34.008121,28.3913891 33.6134149,29.8386447 32.4773274,30.4878376 C32.1193421,30.6924006 31.7141698,30.8 31.3018598,30.8 L13.0670804,30.8 C11.7585904,30.8 10.6978497,29.7392593 10.6978497,28.4307692 C10.6978497,28.0184593 10.805449,27.6132869 11.0100121,27.2553016 L20.1274018,11.2998696 C20.7765946,10.1637822 22.2238503,9.76907606 23.3599378,10.4182689 Z M22.2319165,26.3329863 C21.5173384,26.3329863 20.9380585,26.9192209 20.9380585,27.6423781 C20.9380585,28.3655352 21.5173384,28.9517699 22.2319165,28.9517699 C22.9464945,28.9517699 23.5257744,28.3655352 23.5257744,27.6423781 C23.5257744,26.9192209 22.9464945,26.3329863 22.2319165,26.3329863 Z M22.2319165,16.1488281 C21.5173384,16.1488281 20.9380585,16.7350627 20.9380585,17.4582198 L21.2256306,23.7041353 L21.2255825,23.7142028 C21.2255825,24.2766583 21.6761336,24.7326186 22.2319165,24.7326186 C22.7876993,24.7326186 23.2382504,24.2766583 23.2382504,23.7142028 L23.2378847,23.686477 L23.5182427,17.6003264 C23.5232205,17.5536489 23.5257744,17.5062362 23.5257744,17.4582198 C23.5257744,16.7350627 22.9464945,16.1488281 22.2319165,16.1488281 Z" id="形状结合" fill="url(#linearGradient-4)" mask="url(#mask-3)"></path>
                <path d="M26.1099378,12.0682689 C26.4772426,12.2781574 26.78165,12.5825648 26.9915385,12.9498696 L35.7833946,28.3356179 C36.5369221,29.6542909 36.0787811,31.3341412 34.7601081,32.0876686 C34.3445894,32.3251079 33.8743001,32.45 33.395726,32.45 L15.8170804,32.45 C14.5085904,32.45 13.4478497,31.3892593 13.4478497,30.0807692 C13.4478497,29.6684593 13.555449,29.2632869 13.7600121,28.9053016 L22.8774018,12.9498696 C23.5265946,11.8137822 24.9738503,11.4190761 26.1099378,12.0682689 Z M24.9819165,27.9829863 C24.2673384,27.9829863 23.6880585,28.5692209 23.6880585,29.2923781 C23.6880585,30.0155352 24.2673384,30.6017699 24.9819165,30.6017699 C25.6964945,30.6017699 26.2757744,30.0155352 26.2757744,29.2923781 C26.2757744,28.5692209 25.6964945,27.9829863 24.9819165,27.9829863 Z M24.9819165,17.7988281 C24.2673384,17.7988281 23.6880585,18.3850627 23.6880585,19.1082198 L23.9756306,25.3541353 L23.9755825,25.3642028 C23.9755825,25.9266583 24.4261336,26.3826186 24.9819165,26.3826186 C25.5376993,26.3826186 25.9882504,25.9266583 25.9882504,25.3642028 L25.9878847,25.336477 L26.2682427,19.2503264 C26.2732205,19.2036489 26.2757744,19.1562362 26.2757744,19.1082198 C26.2757744,18.3850627 25.6964945,17.7988281 24.9819165,17.7988281 Z" id="形状结合备份" fill-opacity="0.13" fill="url(#linearGradient-5)" mask="url(#mask-3)"></path>
            </g>
        </g>
    </g>
</svg>