<?xml version="1.0" encoding="UTF-8"?>
<svg width="14px" height="15px" viewBox="0 0 14 15" version="1.1" xmlns="http://www.w3.org/2000/svg" xmlns:xlink="http://www.w3.org/1999/xlink">
    <title>ic_shanchu</title>
    <g id="页面-1" stroke="none" stroke-width="1" fill="none" fill-rule="evenodd">
        <g id="瑞蓝通用管理系统--04.图标及配图" transform="translate(-849, -543)" fill="#AFB5BF">
            <g id="编组" transform="translate(849, 543)">
                <path d="M9.91170764,14.4456895 L4.1548982,14.4456895 C3.07103171,14.4456895 2.18914006,13.5637978 2.18914006,12.4799313 L2.18914006,3.14006108 L11.8774658,3.14006108 L11.8774658,12.4799313 C11.8774658,13.5637978 10.9957245,14.4456895 9.91170764,14.4456895 Z M3.39226646,4.34318748 L3.39226646,12.4799313 C3.39226646,12.900424 3.73440553,13.2425631 4.1548982,13.2425631 L9.91170764,13.2425631 C10.3322003,13.2425631 10.6743394,12.900424 10.6743394,12.4799313 L10.6743394,4.34318748 L3.39226646,4.34318748 Z M8.56435646,2.2031264 L5.50224938,2.2031264 C5.1700361,2.2031264 4.90068618,1.93377648 4.90068618,1.6015632 C4.90068618,1.26934992 5.1700361,1 5.50224938,1 L8.56435646,1 C8.89656974,1 9.16591966,1.26934992 9.16591966,1.6015632 C9.16591966,1.93377648 8.89656974,2.2031264 8.56435646,2.2031264 Z M5.67910896,10.925492 C5.34689568,10.925492 5.07754576,10.6561421 5.07754576,10.3239288 L5.07754576,7.26182174 C5.07754576,6.92960846 5.34689568,6.66025854 5.67910896,6.66025854 C6.01132224,6.66025854 6.28067216,6.92960846 6.28067216,7.26182174 L6.28067216,10.3239288 C6.28067216,10.6561421 6.01132224,10.925492 5.67910896,10.925492 Z M8.38749688,10.925492 C8.0552836,10.925492 7.78593368,10.6561421 7.78593368,10.3239288 L7.78593368,7.26182174 C7.78593368,6.92960846 8.0552836,6.66025854 8.38749688,6.66025854 C8.71971015,6.66025854 8.98906008,6.92960846 8.98906008,7.26182174 L8.98906008,10.3239288 C8.98906008,10.6561421 8.71986055,10.925492 8.38749688,10.925492 Z M12.465193,4.34318748 L1.6015632,4.34318748 C1.26934992,4.34318748 1,4.07383756 1,3.74162428 C1,3.40941101 1.26934992,3.14006108 1.6015632,3.14006108 L12.465193,3.14006108 C12.7974063,3.14006108 13.0667562,3.40941101 13.0667562,3.74162428 C13.0667562,4.07383756 12.7974063,4.34318748 12.465193,4.34318748 Z" id="形状" fill-rule="nonzero"></path>
            </g>
        </g>
    </g>
</svg>