<?xml version="1.0" encoding="UTF-8"?>
<svg width="20px" height="20px" viewBox="0 0 20 20" version="1.1" xmlns="http://www.w3.org/2000/svg" xmlns:xlink="http://www.w3.org/1999/xlink">
    <title>ic_xxtx_ selected</title>
    <g id="页面-1" stroke="none" stroke-width="1" fill="none" fill-rule="evenodd">
        <g id="切图" transform="translate(-247, -64)" fill="#3376FF">
            <g id="编组" transform="translate(245, 64)">
                <path d="M13.6376175,16.9634004 C13.8263506,17.6153733 13.5777333,18.3139753 13.0174678,18.7059894 C12.4572023,19.0980035 11.7073795,19.0980035 11.147114,18.7059894 C10.5868485,18.3139753 10.3382312,17.6153733 10.5269643,16.9634004 L13.6376175,16.9634004 Z M12.0822909,1 C12.7723716,1 13.337838,1.57932631 13.3989695,2.31886711 C16.267947,2.97152021 18.3008197,5.49374326 18.301246,8.40121289 L18.301246,13.189072 C18.3013959,13.2640019 18.3308835,13.3359712 18.3835384,13.3899206 L19.9188797,14.9746509 C19.9711053,15.0287833 20.0001629,15.100731 20,15.1754995 L20,15.9916646 C20,16.1519618 19.8684123,16.2819083 19.706095,16.2819083 L4.29390194,16.2819083 C4.13158464,16.2819083 4,16.1519618 4,15.9916646 L4,15.1789824 C4,15.1019524 4.03073436,15.0280271 4.0858197,14.9734899 L5.57766356,13.5002132 C5.6327489,13.445676 5.6636221,13.3717507 5.66348279,13.2947207 L5.66348279,8.40121289 C5.66384482,5.41665273 7.8033713,2.84984356 10.7691391,2.27591105 C10.8479047,1.55610682 11.4063175,1 12.0822909,1 Z M11.9823644,3.90243643 C9.50273075,3.90255942 7.47861975,5.86123212 7.42806722,8.3094959 L7.42806722,14.0621249 L7.01660516,14.5404464 L17.057455,14.5404464 L16.5378372,14.0621249 L16.5378372,8.40121289 C16.5378372,5.91660726 14.4982825,3.90243643 11.9823644,3.90243643 Z" id="形状" fill-rule="nonzero"></path>
            </g>
        </g>
    </g>
</svg>