<?xml version="1.0" encoding="UTF-8"?>
<svg width="20px" height="20px" viewBox="0 0 20 20" version="1.1" xmlns="http://www.w3.org/2000/svg" xmlns:xlink="http://www.w3.org/1999/xlink">
    <title>ic_xxtx</title>
    <g id="页面-1" stroke="none" stroke-width="1" fill="none" fill-rule="evenodd">
        <g id="切图" transform="translate(-195, -64)" fill="#000000">
            <g id="编组" transform="translate(187, 50)">
                <g transform="translate(8, 14)" fill-rule="nonzero" id="形状">
                    <path d="M11.6376175,16.9634004 C11.8263506,17.6153733 11.5777333,18.3139753 11.0174678,18.7059894 C10.4572023,19.0980035 9.70737954,19.0980035 9.14711403,18.7059894 C8.58684852,18.3139753 8.33823119,17.6153733 8.52696432,16.9634004 L11.6376175,16.9634004 Z M10.0822909,1 C10.7723716,1 11.337838,1.57932631 11.3989695,2.31886711 C14.267947,2.97152021 16.3008197,5.49374326 16.301246,8.40121289 L16.301246,13.189072 C16.3013959,13.2640019 16.3308835,13.3359712 16.3835384,13.3899206 L17.9188797,14.9746509 C17.9711053,15.0287833 18.0001629,15.100731 18,15.1754995 L18,15.9916646 C18,16.1519618 17.8684123,16.2819083 17.706095,16.2819083 L2.29390194,16.2819083 C2.13158464,16.2819083 2,16.1519618 2,15.9916646 L2,15.1789824 C2,15.1019524 2.03073436,15.0280271 2.0858197,14.9734899 L3.57766356,13.5002132 C3.6327489,13.445676 3.6636221,13.3717507 3.66348279,13.2947207 L3.66348279,8.40121289 C3.66384482,5.41665273 5.8033713,2.84984356 8.76913913,2.27591105 C8.84790473,1.55610682 9.40631752,1 10.0822909,1 Z M9.9823644,3.90243643 C7.50273075,3.90255942 5.47861975,5.86123212 5.42806722,8.3094959 L5.42806722,14.0621249 L5.01660516,14.5404464 L15.057455,14.5404464 L14.5378372,14.0621249 L14.5378372,8.40121289 C14.5378372,5.91660726 12.4982825,3.90243643 9.9823644,3.90243643 Z"></path>
                </g>
            </g>
        </g>
    </g>
</svg>