<?xml version="1.0" encoding="UTF-8"?>
<svg width="20px" height="20px" viewBox="0 0 20 20" version="1.1" xmlns="http://www.w3.org/2000/svg" xmlns:xlink="http://www.w3.org/1999/xlink">
    <title>ic_gzt_selected</title>
    <g id="页面-1" stroke="none" stroke-width="1" fill="none" fill-rule="evenodd">
        <g id="切图" transform="translate(-440, -65)" fill="#3376FF">
            <g id="编组备份-6" transform="translate(430, 57)">
                <g id="编组" transform="translate(10.6, 10.6)" fill-rule="nonzero">
                    <path d="M15.3361148,0 C16.2847997,0 16.7826716,0.0961434999 17.3012847,0.373500826 C17.7840522,0.631687738 18.1683123,1.01594777 18.4264992,1.49871532 C18.7038565,2.01732843 18.8,2.51520034 18.8,3.4638852 L18.8,9.3361148 C18.8,10.2847997 18.7038565,10.7826716 18.4264992,11.3012847 C18.1683123,11.7840522 17.7840522,12.1683123 17.3012847,12.4264992 C16.7826716,12.7038565 16.2847997,12.8 15.3361148,12.8 L3.4638852,12.8 C2.51520034,12.8 2.01732843,12.7038565 1.49871532,12.4264992 C1.01594777,12.1683123 0.631687738,11.7840522 0.373500826,11.3012847 C0.0961434999,10.7826716 0,10.2847997 0,9.3361148 L0,3.4638852 C0,2.51520034 0.0961434999,2.01732843 0.373500826,1.49871532 C0.631687738,1.01594777 1.01594777,0.631687738 1.49871532,0.373500826 C2.01732843,0.0961434999 2.51520034,0 3.4638852,0 L15.3361148,0 Z M15.3361148,1.8 L3.4638852,1.8 C2.78693681,1.8 2.5697885,1.84193327 2.34759327,1.96076458 C2.17850897,2.05119186 2.05119186,2.17850897 1.96076458,2.34759327 C1.84193327,2.5697885 1.8,2.78693681 1.8,3.4638852 L1.8,9.3361148 C1.8,10.0130632 1.84193327,10.2302115 1.96076458,10.4524067 C2.05119186,10.621491 2.17850897,10.7488081 2.34759327,10.8392354 C2.5697885,10.9580667 2.78693681,11 3.4638852,11 L15.3361148,11 C16.0130632,11 16.2302115,10.9580667 16.4524067,10.8392354 C16.621491,10.7488081 16.7488081,10.621491 16.8392354,10.4524067 C16.9580667,10.2302115 17,10.0130632 17,9.3361148 L17,3.4638852 C17,2.78693681 16.9580667,2.5697885 16.8392354,2.34759327 C16.7488081,2.17850897 16.621491,2.05119186 16.4524067,1.96076458 C16.2302115,1.84193327 16.0130632,1.8 15.3361148,1.8 Z M7.7283948,4.77225928 L11.0861359,6.54116137 L12.747509,5.03938333 C13.0382053,4.776612 13.4868794,4.79924961 13.7496507,5.08994584 C14.012422,5.38064208 13.9897844,5.82931619 13.6990882,6.09208752 L11.6698949,7.9263521 C11.4489793,8.12604608 11.1268728,8.16653991 10.8634033,8.02774072 L7.48501531,6.24796157 L5.75091117,7.67947952 C5.44871747,7.92894303 5.00151094,7.88619677 4.75204743,7.58400307 C4.50258393,7.28180937 4.54533019,6.83460285 4.84752389,6.58513934 L6.94599911,4.85282991 C7.16668602,4.67065096 7.4752118,4.63887916 7.7283948,4.77225928 Z M16.6618927,14.7154187 C16.6618927,15.212475 16.258949,15.6154187 15.7618927,15.6154187 L3.9,15.6154187 C3.40294373,15.6154187 3,15.212475 3,14.7154187 C3,14.2183625 3.40294373,13.8154187 3.9,13.8154187 L15.7618927,13.8154187 C16.258949,13.8154187 16.6618927,14.2183625 16.6618927,14.7154187 Z" id="形状结合"></path>
                </g>
            </g>
        </g>
    </g>
</svg>