<?xml version="1.0" encoding="UTF-8"?>
<svg width="180px" height="180px" viewBox="0 0 180 180" version="1.1" xmlns="http://www.w3.org/2000/svg" xmlns:xlink="http://www.w3.org/1999/xlink">
    <title>pic_default</title>
    <g id="页面-1" stroke="none" stroke-width="1" fill="none" fill-rule="evenodd">
        <g id="瑞蓝通用管理系统--04.图标及配图" transform="translate(-344, -1422)">
            <g id="编组备份-3" transform="translate(344, 1422)">
                <ellipse id="椭圆形-2" fill="#C4DCFF" cx="90" cy="118.5" rx="77" ry="35.5"></ellipse>
                <g id="编组" transform="translate(26.7352, 41.1848)">
                    <polygon id="路径" fill="#4D85F8" points="61.0871431 58.7044926 61.0871431 97.8098791 10.1596892 68.27479 10.1596892 29.4784624"></polygon>
                    <polygon id="路径" fill="#A0C7FF" points="0 45.9803152 48.5787734 75.1277933 61.0871431 58.7044926 10.5033551 29.4784624"></polygon>
                    <polygon id="路径" fill="#74AAFF" points="61.0871431 58.7044926 61.0871431 97.8098791 111.588747 67.8356552 111.588747 29.4784624"></polygon>
                    <polygon id="路径备份" fill="#C5DCFF" transform="translate(90.3435, 52.7687) rotate(-61) translate(-90.3435, -52.7687)" points="59.5646732 47.5352588 111.197127 75.4791589 121.122327 60.2552061 70.9681767 30.0582439"></polygon>
                    <polygon id="路径" fill="#D2E3FF" points="43.1061889 48.3209223 61.0871431 37.3010322 79.166387 48.3209223 61.0871431 58.7044926"></polygon>
                    <polygon id="路径" fill="#A0C7FF" points="61.1362879 0 61.0871431 37.3010322 79.166387 48.3209223 111.588747 29.4784624"></polygon>
                    <polygon id="路径" fill="#C0D7F7" points="61.3171038 37.3010322 43.1061889 48.3209223 10.5033551 29.4784624 61.1362879 0"></polygon>
                </g>
                <path d="M53.2240649,38.8836309 L63.1664241,45.3630711 L53.2240649,43.8371259 L53.2240649,38.8836309 Z M60.0081389,27.2794335 L65.4773689,42.2612081 L54.6382117,32.2926099 L60.0081389,27.2794335 Z M68.4432275,29.0571364 L68.4432275,42.2612081 L73.0324709,31.9627138 L68.4432275,29.0571364 Z" id="形状结合" fill="#4C84F8"></path>
            </g>
        </g>
    </g>
</svg>