<?xml version="1.0" encoding="UTF-8"?>
<svg width="180px" height="180px" viewBox="0 0 180 180" version="1.1" xmlns="http://www.w3.org/2000/svg" xmlns:xlink="http://www.w3.org/1999/xlink">
    <title>pic_default_wifi</title>
    <defs>
        <linearGradient x1="50%" y1="100%" x2="50%" y2="0.528889974%" id="linearGradient-1">
            <stop stop-color="#EFF5FF" stop-opacity="0" offset="0%"></stop>
            <stop stop-color="#C5DDFF" offset="39.1120538%"></stop>
            <stop stop-color="#ABCFFF" stop-opacity="0.994884575" offset="57.7775558%"></stop>
            <stop stop-color="#73ADFF" offset="100%"></stop>
        </linearGradient>
        <linearGradient x1="100%" y1="56.9631775%" x2="0%" y2="37.6851409%" id="linearGradient-2">
            <stop stop-color="#FFFFFF" offset="0%"></stop>
            <stop stop-color="#B3CDFD" offset="100%"></stop>
        </linearGradient>
        <linearGradient x1="100%" y1="84.5576414%" x2="0%" y2="18.5633982%" id="linearGradient-3">
            <stop stop-color="#A3D1FF" offset="0%"></stop>
            <stop stop-color="#6EA4FF" offset="100%"></stop>
        </linearGradient>
        <path d="M18.5484498,8.55262719 C4.36586384,22.73794 4.36586384,45.7356421 18.5484498,59.9180959 C32.7309625,74.0974709 56.5219851,72.31514 70.7103623,58.135765 L18.5484498,8.55262719 Z" id="path-4"></path>
        <linearGradient x1="47.3783225%" y1="123.578718%" x2="53.3157591%" y2="-15.0853595%" id="linearGradient-5">
            <stop stop-color="#FFFFFF" offset="0%"></stop>
            <stop stop-color="#508FFF" offset="100%"></stop>
        </linearGradient>
        <ellipse id="path-6" cx="46.3229236" cy="35.3071501" rx="7.5" ry="36"></ellipse>
        <linearGradient x1="-54.7290916%" y1="80.0183651%" x2="85.2656579%" y2="35.3535147%" id="linearGradient-7">
            <stop stop-color="#F3F8FF" offset="0%"></stop>
            <stop stop-color="#408FFF" offset="100%"></stop>
        </linearGradient>
        <path d="M63.1386878,26.0256166 L41.2998404,41.9084147 L41.2998404,41.9084147 L36.7998404,33.4084147 L62.2123174,24.2758058 C62.7320586,24.0890238 63.3048089,24.3589405 63.4915909,24.8786818 C63.6419014,25.2969372 63.4981261,25.7642069 63.1386878,26.0256166 Z" id="path-8"></path>
        <linearGradient x1="-4.99048081%" y1="71.2920173%" x2="85.2656579%" y2="36.937747%" id="linearGradient-9">
            <stop stop-color="#F5F5F5" offset="0%"></stop>
            <stop stop-color="#2078F2" offset="100%"></stop>
        </linearGradient>
        <path d="M84.0402428,68.6579619 C77.4153794,68.6579619 78.0177023,74.5105572 77.7631173,78.9262766 C73.9384722,87.4481801 66.9844798,79.4155032 66.7361287,88.0890529 C73.0647905,88.7553857 79.0873774,89.0885521 84.8038895,89.0885521 C90.0873774,89.0885521 95.6029703,88.7553857 101.350668,88.0890529 C101.108553,79.4154754 94.1483479,87.4480898 90.3236022,78.9262766 C90.0690931,74.5105649 90.5471646,68.6579619 84.0402428,68.6579619 Z" id="path-10"></path>
        <linearGradient x1="-4.99048081%" y1="50.462143%" x2="85.2656579%" y2="49.7164839%" id="linearGradient-11">
            <stop stop-color="#F5F5F5" offset="0%"></stop>
            <stop stop-color="#2073F2" offset="100%"></stop>
        </linearGradient>
        <path d="M66.7291214,88.0885521 C72.3136624,88.5982624 78.0624547,88.8531176 83.9754982,88.8531176 C89.8885417,88.8531176 95.6397494,88.5982624 101.229121,88.0885521 C101.229121,88.5749075 101.229121,88.9082408 101.229121,89.0885521 C101.229121,89.7742719 101.229121,90.0885521 101.229121,90.0885521 C101.229121,90.0885521 92.8450634,91.0885521 83.9754982,91.0885521 C78.0624547,91.0885521 72.3136624,90.7552188 66.7291214,90.0885521 L66.7291214,88.0885521 Z" id="path-12"></path>
    </defs>
    <g id="页面-1" stroke="none" stroke-width="1" fill="none" fill-rule="evenodd">
        <g id="瑞蓝通用管理系统--04.图标及配图" transform="translate(-1208, -1422)">
            <g id="pic_default_wifi" transform="translate(1208, 1422)">
                <g id="Group-2" transform="translate(5, 19.9114)">
                    <path d="M85.2291214,77.0885521 C107.843642,77.0885521 128.407531,84.7449291 143.698093,96.1423378 L149.93664,91.1213786 L157.510647,98.4760393 L152.740069,103.916689 C162.720288,113.838686 169.127681,125.501725 170.467015,137.089201 L2.22682983e-13,137.088967 C1.54201375,124.155526 9.58304947,110.945213 21.9497285,100.224265 L16.7291214,91.0885521 L28.2291214,83.0885521 L34.7888433,90.9605361 C48.9285107,82.5060917 66.3654094,77.0885521 85.2291214,77.0885521 Z" id="Combined-Shape" fill="url(#linearGradient-1)"></path>
                    <g id="Group" transform="translate(28.7291, 44.0886)" fill="url(#linearGradient-2)">
                        <circle id="Oval" cx="90" cy="73" r="12"></circle>
                        <circle id="Oval-Copy" cx="15" cy="67" r="6"></circle>
                        <circle id="Oval-Copy-3" cx="7.5" cy="7.5" r="7.5"></circle>
                        <circle id="Oval-Copy-2" cx="39.5" cy="89.5" r="4.5"></circle>
                    </g>
                    <g id="编组" transform="translate(100.5111, 39.6351) rotate(-1) translate(-100.5111, -39.6351)translate(61.2002, 0.6801)">
                        <g id="Combined-Shape" transform="translate(39.3109, 39.128) rotate(18) translate(-39.3109, -39.128)">
                            <use fill="#D8D8D8" xlink:href="#path-4"></use>
                            <use fill="url(#linearGradient-3)" xlink:href="#path-4"></use>
                        </g>
                        <path d="M20.49993,8.66353909 C20.9846274,10.209305 21.6429002,11.551644 22.4747482,12.690556 C20.0270674,15.7073017 12.6668127,26.7655792 17.786552,45.6635391 C6.11239381,23.8966981 20.49993,8.66353909 20.49993,8.66353909 Z" id="Path" fill="#F7F7F7" fill-rule="nonzero" opacity="0.853934152" transform="translate(17.8468, 27.1635) rotate(15) translate(-17.8468, -27.1635)"></path>
                        <g id="椭圆形" transform="translate(46.3229, 35.3072) rotate(-28) translate(-46.3229, -35.3072)">
                            <use fill="#D8D8D8" xlink:href="#path-6"></use>
                            <use fill="url(#linearGradient-5)" xlink:href="#path-6"></use>
                        </g>
                        <g id="WIFI" transform="translate(66.5876, 23.048) rotate(65) translate(-66.5876, -23.048)translate(57.9427, 16.7479)">
                            <g id="编组" transform="translate(0, 0)">
                                <path d="M2.73980842,12.6001314 L2.73980842,12.6001314 C2.66069633,12.6001314 2.58481309,12.5682673 2.52895021,12.5113731 C-0.842983403,9.08643882 -0.842983403,3.51363925 2.52895021,0.0887049643 L2.52895021,0.0887049656 C2.6454039,-0.0295683214 2.83421259,-0.0295683214 2.95066663,0.088704963 C3.06712033,0.20697825 3.06712033,0.398737074 2.95066664,0.51701071 C-0.188943267,3.70567702 -0.188943267,8.89411128 2.95066663,12.0830743 L2.95066665,12.0830744 C3.06728534,12.2009784 3.06771383,12.3925741 2.95162376,12.5110153 C2.89554879,12.5682256 2.81929103,12.600309 2.7398082,12.6001314 L2.73980842,12.6001314 Z M14.5496456,12.6001524 L14.5496456,12.6001524 C14.3850956,12.600493 14.251406,12.4653139 14.2510427,12.2981931 C14.2508678,12.2174687 14.2824575,12.1400194 14.3387877,12.0830679 C15.8574426,10.5409877 16.6937186,8.48730845 16.6937186,6.3000448 C16.6937186,4.11278114 15.8574444,2.05909137 14.3387877,0.517021709 L14.3387877,0.517021703 C14.222334,0.398748416 14.222334,0.206989592 14.3387877,0.088715956 C14.4552414,-0.0295573311 14.6440501,-0.0295573311 14.7605042,0.0887159585 C16.3918937,1.74529398 17.2899056,3.95102966 17.2899056,6.30005876 C17.2899056,8.6490704 16.3915964,10.85482 14.7605042,12.5114016 L14.7605042,12.5114015 C14.7046416,12.5682958 14.6287584,12.6001524 14.549646,12.6001524 L14.5496456,12.6001524 Z" id="形状" fill="#256EF2" fill-rule="nonzero"></path>
                                <path d="M5.27070511,10.0296965 L5.27070512,10.0296965 C5.19159303,10.0296965 5.11570961,9.99782539 5.0598469,9.94093115 C4.10367938,8.96982351 3.57698158,7.67672112 3.57698158,6.29973355 C3.57698158,4.92273552 4.10367938,3.62994908 5.0598469,2.65853596 L5.0598469,2.65853596 C5.1763006,2.54026267 5.36510929,2.54026267 5.48156333,2.65853596 C5.59801703,2.77680924 5.59801703,2.96856807 5.48156333,3.0868417 C3.73713318,4.85852858 3.73713318,7.74064875 5.48156333,9.51233563 L5.48156333,9.51233563 C5.5983472,9.63007092 5.59904432,9.821666 5.4831204,9.94027479 C5.42694867,9.99774735 5.35043894,10.0299556 5.270705,10.0296965 L5.27070511,10.0296965 Z M12.0193505,10.0296826 L12.0193505,10.0296826 C11.8548004,10.030051 11.7211109,9.8948719 11.7207475,9.7277511 C11.7205727,9.64702671 11.7521624,9.56957742 11.8084928,9.51262593 C13.5529229,7.74093905 13.5529229,4.85881888 11.8084928,3.087132 L11.8084928,3.087132 C11.6920391,2.96885871 11.6920391,2.77709989 11.8084928,2.65882625 C11.9249465,2.54055296 12.1137552,2.54055296 12.2302092,2.65882625 C13.1863767,3.62993389 13.7130745,4.92303629 13.7130745,6.30002385 C13.7130745,7.67702189 13.1863767,8.96980833 12.2302092,9.94122145 L12.2302092,9.94122144 C12.1742791,9.9979762 12.0984139,10.029799 12.019351,10.0296826 L12.0193505,10.0296826 Z" id="形状" fill="#6DA4F9" fill-rule="nonzero"></path>
                                <ellipse id="椭圆形" fill="#2488F2" cx="8.59970523" cy="6.29310169" rx="1" ry="1.015625"></ellipse>
                            </g>
                        </g>
                        <g id="路径-2">
                            <use fill="#D8D8D8" xlink:href="#path-8"></use>
                            <use fill="url(#linearGradient-7)" xlink:href="#path-8"></use>
                        </g>
                    </g>
                    <ellipse id="Oval" fill-opacity="0.77" fill="#3D73D4" cx="84.2291214" cy="90.5885521" rx="25.5" ry="3.5"></ellipse>
                    <g id="Path">
                        <use fill="#D8D8D8" xlink:href="#path-10"></use>
                        <use fill="url(#linearGradient-9)" xlink:href="#path-10"></use>
                    </g>
                    <g id="Path-2">
                        <use fill="#D8D8D8" xlink:href="#path-12"></use>
                        <use fill="url(#linearGradient-11)" xlink:href="#path-12"></use>
                    </g>
                    <path d="M79.1785869,78.6228036 C78.0857958,68.8499368 84.8038895,69.5714298 84.8038895,69.5714298 C84.8038895,69.5714297 81.5379994,71.7483375 79.1785869,78.6228036 L79.1785869,78.6228036 Z" id="Path" fill="#F7F7F7" fill-rule="nonzero"></path>
                </g>
            </g>
        </g>
    </g>
</svg>