<?xml version="1.0" encoding="UTF-8"?>
<svg width="12px" height="12px" viewBox="0 0 12 12" version="1.1" xmlns="http://www.w3.org/2000/svg" xmlns:xlink="http://www.w3.org/1999/xlink">
    <title>icon_info</title>
    <g id="页面-1" stroke="none" stroke-width="1" fill="none" fill-rule="evenodd">
        <g id="瑞蓝通用管理系统--04.图标及配图" transform="translate(-345, -509)" fill="#CCCCCC">
            <g id="编组" transform="translate(345, 509)">
                <path d="M6,0 C7.69656857,0.0445714286 9.10954286,0.631571143 10.239,1.761 C11.3684571,2.89043143 11.9554286,4.30343143 12,6 C11.9554286,7.69656857 11.3684571,9.10954286 10.239,10.239 C9.10954286,11.3684571 7.69656857,11.9554286 6,12 C4.30343143,11.9554286 2.89043143,11.3684571 1.761,10.239 C0.631571143,9.10954286 0.0445714286,7.69656857 0,6 C0.0445714286,4.30343143 0.631571143,2.89043143 1.761,1.761 C2.89043143,0.631571143 4.30343143,0.0445714286 6,0 L6,0 Z M6.89742857,3.68314286 C7.12971429,3.68314286 7.32171429,3.61399714 7.47342857,3.47571429 C7.62514286,3.33743143 7.701,3.15214286 7.701,2.91985714 C7.701,2.68757143 7.62514286,2.50228286 7.47342857,2.364 C7.32171429,2.22571714 7.13200286,2.15657143 6.90428571,2.15657143 C6.67656857,2.15657143 6.48685714,2.22571714 6.33514286,2.364 C6.18342857,2.50228286 6.10757143,2.68757143 6.10757143,2.91985714 C6.10757143,3.15214286 6.18342857,3.33743143 6.33514286,3.47571429 C6.48685714,3.61399714 6.67442571,3.68314286 6.89785714,3.68314286 L6.89742857,3.68314286 Z M7.05814286,8.50457143 C7.05814286,8.45085429 7.06257429,8.37942857 7.07142857,8.29028571 C7.08028286,8.20114286 7.08028286,8.11628571 7.07142857,8.03571429 L6.36171429,8.85257143 C6.29028857,8.93288571 6.21657429,8.99545714 6.14057143,9.04028571 C6.06456857,9.08511429 5.99985429,9.09857143 5.94642857,9.08057143 C5.86614,9.04482857 5.83043143,8.98225714 5.83928571,8.89285714 L7.01785714,5.18314286 C7.06242857,4.93314 7.02228857,4.71885714 6.89742857,4.54028571 C6.77256857,4.36171714 6.57171429,4.25457429 6.29485714,4.21885714 C5.98228286,4.22771143 5.64071143,4.35942857 5.27014286,4.614 C4.89957429,4.86857143 4.57585714,5.19228857 4.299,5.58514286 L4.299,5.78614286 C4.29014571,5.87556857 4.29014571,5.96042571 4.299,6.04071429 L5.00871429,5.22385714 C5.08014,5.14356857 5.15385429,5.08099714 5.22985714,5.03614286 C5.30586,4.99128857 5.36614286,4.97785714 5.41071429,4.99585714 C5.50014,5.04042857 5.53142571,5.11185429 5.50457143,5.21014286 L4.33928571,8.90657143 C4.27671429,9.12968571 4.308,9.32845714 4.43314286,9.50271429 C4.55828571,9.67697143 4.77700286,9.79525714 5.08928571,9.85757143 C5.53585714,9.84874286 5.91085714,9.71931429 6.21428571,9.46928571 C6.51771429,9.21925714 6.79900286,8.89782857 7.05814286,8.505 L7.05814286,8.50457143 Z" id="Vector" fill-rule="nonzero"></path>
            </g>
        </g>
    </g>
</svg>