<?xml version="1.0" encoding="UTF-8"?>
<svg width="16px" height="16px" viewBox="0 0 16 16" version="1.1" xmlns="http://www.w3.org/2000/svg" xmlns:xlink="http://www.w3.org/1999/xlink">
    <title>ic_yidu</title>
    <g id="页面-1" stroke="none" stroke-width="1" fill="none" fill-rule="evenodd">
        <g id="消息通知-未读" transform="translate(-1701, -362)" fill="#606266">
            <g id="编组" transform="translate(1685, 354)">
                <g transform="translate(16, 9)" fill-rule="nonzero" id="ic_已读">
                    <path d="M14.7259305,6.59006598 C14.9434526,6.68494072 15.0517307,6.92687939 14.9758511,7.14849366 L14.9426542,7.2236872 L11.6681473,13 L8.2534757,10.8329768 C8.05246883,10.7060359 7.98348652,10.4492575 8.09455088,10.2413982 C8.20561525,10.0335389 8.45991753,9.94348699 8.68042493,10.0339322 L8.75419585,10.071982 L11.3407888,11.7135564 L14.1367069,6.78249141 C14.2531274,6.57855952 14.5084084,6.49519124 14.7259305,6.59006598 Z M7.49732375,11.383792 C7.73426258,11.3858137 7.93106738,11.5639453 7.95249815,11.7957788 C7.97392893,12.0276123 7.81300769,12.2376613 7.58031604,12.2815847 L7.49732375,12.288833 L1.46194007,12.288833 C1.22311676,12.2892642 1.02348776,12.110459 1.00190891,11.8767882 C0.980330069,11.6431173 1.14394484,11.4319352 1.37894778,11.3901337 L1.46194007,11.383792 L7.49732375,11.383792 Z M10.5154767,6.69099007 C10.7543,6.6905589 10.953929,6.86936406 10.9755078,7.10303492 C10.9970867,7.33670577 10.8334719,7.5478879 10.5984689,7.58968945 L10.5154767,7.59693779 L1.46194007,7.59693779 C1.22311676,7.59736897 1.02348776,7.4185638 1.00190891,7.18489295 C0.980330069,6.9512221 1.14394484,6.74003997 1.37894778,6.69823841 L1.46194007,6.69099007 L10.5154767,6.69099007 Z M13.5327074,2.00000078 C13.7715307,1.99956961 13.9711597,2.17837477 13.9927386,2.41204562 C14.0143174,2.64571647 13.8507026,2.85689861 13.6156997,2.89870016 L13.5327074,2.9059485 L1.46194007,2.9059485 C1.22311676,2.90637967 1.02348776,2.72757451 1.00190891,2.49390366 C0.980330069,2.2602328 1.14394484,2.04905067 1.37894778,2.00724912 L1.46194007,2.00000078 L13.5327074,2.00000078 Z"></path>
                </g>
            </g>
        </g>
    </g>
</svg>