<?xml version="1.0" encoding="UTF-8"?>
<svg width="60px" height="60px" viewBox="0 0 60 60" version="1.1" xmlns="http://www.w3.org/2000/svg" xmlns:xlink="http://www.w3.org/1999/xlink">
    <title>ic_yyq</title>
    <defs>
        <linearGradient x1="-1.20225921%" y1="5.12996882%" x2="69.2878407%" y2="88.186765%" id="linearGradient-1">
            <stop stop-color="#FFF9F9" offset="0%"></stop>
            <stop stop-color="#FF4237" offset="100%"></stop>
        </linearGradient>
    </defs>
    <g id="页面-1" stroke="none" stroke-width="1" fill="none" fill-rule="evenodd">
        <g id="瑞蓝通用管理系统--04.图标及配图" transform="translate(-490, -3220)" fill="url(#linearGradient-1)">
            <g id="编组" transform="translate(490, 3220)">
                <path d="M44.4765275,33.4474286 C49.7381874,33.4474286 54,37.5991591 54,42.7178146 C54,47.8444769 49.7381874,52 44.4765275,52 C39.2148675,52 34.9530549,47.8444769 34.9530549,42.721818 C34.9530549,37.5991591 39.2188468,33.4474286 44.4765275,33.4474286 Z M34.9725783,10 C34.977446,11.8121449 34.9648062,13.6242899 34.9791641,15.4364759 C35.0495215,17.3445904 35.9632677,19.3880581 37.7677713,20.2134701 C38.297676,20.4519226 38.8792245,20.5205156 39.4551984,20.5286722 L39.7015362,20.5287867 C41.6272018,20.5296098 43.5524174,20.5254945 45.4780012,20.5308444 C45.4812736,24.0094104 45.4808646,27.4884291 45.4780012,30.9673654 C43.592832,30.7743152 41.6517451,30.9413977 39.8704757,31.6178347 C37.4972226,32.5033305 35.4238883,34.1767476 34.0526962,36.3182425 C29.9747488,36.3260616 25.8968422,36.3161848 21.8189357,36.3231397 C20.9977176,36.3169667 20.2153188,36.7582537 19.7361522,37.4189701 C19.2042175,38.122486 19.0982315,39.1047744 19.4059224,39.9248364 C19.7884703,40.8922685 20.7787506,41.5928624 21.8213491,41.5813395 C25.2838329,41.5866895 28.7463986,41.5821626 32.2088825,41.5833972 C31.9654131,44.3704229 32.6458755,47.2470806 34.2580416,49.5425711 C29.3347419,49.5431884 24.4114012,49.5431884 19.4876924,49.5425711 C18.8235922,49.5508018 18.1787176,49.3384096 17.5915606,49.0399246 C16.4175738,48.4380163 15.3991504,47.5176224 14.7035121,46.3896513 C14.2558836,45.6951069 13.994375,44.8759502 14.0037833,44.0448179 C14.002188,34.6041659 14.0042332,25.1634316 14.0029652,15.7223268 C13.9448794,14.1213807 14.7464629,12.5965271 15.8561463,11.492466 C16.6323274,10.7370558 17.5951602,10.1014841 18.6962944,10 L34.9725783,10 Z M49.4942857,41.3333333 L39.5,41.3333333 L39.5,47.1823899 C39.5,47.6340766 39.9057143,48 40.4028571,48 L48.5914286,48 C49.0885714,48 49.4942857,47.6340766 49.4942857,47.1823899 L49.4942857,41.3333333 Z M46.3171429,44.866781 C46.5685714,44.866781 46.7742857,45.0440252 46.7742857,45.2612922 C46.7742857,45.4785592 46.5685714,45.6558033 46.3171429,45.6558033 L42.6828571,45.6558033 C42.4314286,45.6500858 42.2257143,45.4785592 42.2257143,45.2612922 C42.2257143,45.0440252 42.4314286,44.866781 42.6828571,44.866781 L46.3171429,44.866781 Z M46.3171429,42.9056604 C46.5685714,42.9056604 46.7742857,43.0829045 46.7742857,43.3001715 C46.7742857,43.5174385 46.5685714,43.6946827 46.3171429,43.6946827 L42.6828571,43.6946827 C42.4314286,43.6946827 42.2257143,43.5174385 42.2257143,43.3001715 C42.2257143,43.0829045 42.4314286,42.9056604 42.6828571,42.9056604 L46.3171429,42.9056604 Z M46.3171429,38 C46.0657143,38 45.86,38.1772441 45.86,38.3945111 L45.86,38.5889079 L43.1342857,38.5889079 L43.1342857,38.3945111 C43.1342857,38.1772441 42.9285714,38 42.6771429,38 C42.4257143,38 42.22,38.1772441 42.22,38.3945111 L42.22,38.5889079 L40.4028571,38.5889079 C39.9057143,38.5889079 39.5,38.9548313 39.5,39.4122356 L39.5,40.5557461 L49.5,40.5557461 L49.5,39.4122356 C49.5,38.9548313 49.0885714,38.5889079 48.5914286,38.5889079 L46.7742857,38.5889079 L46.7742857,38.3945111 C46.7742857,38.1772441 46.5685714,38 46.3171429,38 Z M22.1065829,25.7922953 C21.8790258,25.7918426 21.6507324,25.7918426 21.4261205,25.8281399 C20.541049,25.9601597 19.758732,26.5973776 19.4166396,27.4248472 C19.0831783,28.2782434 19.2083899,29.3135784 19.7914564,30.0294403 C20.2799903,30.6646417 21.0582986,31.0681087 21.8619682,31.0553512 C27.1121844,31.0569562 32.3628915,31.0586435 37.6135577,31.0545281 C38.8628106,31.0673268 40.0138494,30.0422801 40.1774303,28.8019193 C40.4626232,27.29435 39.1667382,25.7823362 37.6547904,25.7955876 C32.4720273,25.78818 27.2893051,25.7947645 22.1065829,25.7922953 Z M38.02883,10 C39.1275098,10.197577 39.9479098,11.0320839 40.7871263,11.7067925 C42.2438516,12.9776067 43.7700754,14.2093253 44.9416079,15.7637271 C45.4039623,16.3483099 45.5492585,17.0995636 45.4780421,17.8307345 C43.4165704,17.8352613 41.3550986,17.8340267 39.2939951,17.8311872 C38.9474849,17.8390063 38.6319401,17.6438984 38.427781,17.3722043 C37.9199396,16.7666333 37.6556903,15.9721274 37.6147031,15.1875396 C37.6098353,13.4581539 37.613885,11.7291799 37.6126578,10.0001646 L38.02883,10 Z" id="形状结合"></path>
            </g>
        </g>
    </g>
</svg>